<?xml version="1.0" encoding="utf-8"?>
<!-- Generator: Adobe Illustrator 21.0.0, SVG Export Plug-In . SVG Version: 6.00 Build 0)  -->
<svg version="1.1" id="Layer_1" xmlns="http://www.w3.org/2000/svg" xmlns:xlink="http://www.w3.org/1999/xlink" x="0px" y="0px"
	 viewBox="0 0 163.5 48.2" style="enable-background:new 0 0 163.5 48.2;" xml:space="preserve">
<style type="text/css">
	.st0{fill:#192042;}
	.st1{enable-background:new    ;}
</style>
<polygon class="st0" points="5.9,26.6 5.8,29.6 13.2,26.6 13.1,23.6 "/>
<polygon class="st0" points="13.4,31.2 13.3,28.4 5.7,31.5 5.6,34.4 "/>
<polygon class="st0" points="6.1,21.7 6,24.7 13,21.8 12.9,19 "/>
<polygon class="st0" points="13.6,35.8 13.5,32.9 6.6,35.7 5.3,35.7 3.3,39 5.3,39 13.6,39 15.6,39 "/>
<path class="st0" d="M13.8,8.3l-0.5-0.5c-2.1-2.1-5.6-2.1-7.7,0L5.1,8.3C5,8.4,5.1,8.6,5.3,8.6h0.3v1h0.6v5H5.6v0.7h0.8l-0.2,4
	l6.6-2.7l-0.1-1.3h0.6v-0.7h-0.6v-5h0.6v-1h0.3C13.8,8.6,14,8.4,13.8,8.3z M7.2,9.7h4.5v4.4H7.2V9.7z"/>
<g class="st1">
	<path class="st0" d="M35.4,27.6V39h-5.2V27c0-2.2-1.5-3.6-3.3-3.6c-2.2,0-3.5,1.6-3.5,3.7V39h-5.2V19.2h5.1v2.3
		c0.8-1.4,2.7-2.8,5.3-2.8C34.2,18.7,35.4,23.4,35.4,27.6z"/>
	<path class="st0" d="M40.2,23.5h-2.1v-4.2h2.1v-0.7c0-5.1,3.4-6.8,7.3-6.8c0.8,0,1.3,0,1.7,0.1v4.4c-0.1,0-0.6-0.1-1-0.1
		c-1.8,0-2.8,0.8-2.8,2.6v0.6h3.4v4.2h-3.4V39h-5.2V23.5z"/>
	<path class="st0" d="M60.8,18.7c6.1,0,10.7,4.5,10.7,10.4S67,39.5,60.8,39.5c-6.2,0-10.6-4.4-10.6-10.3
		C50.2,23.2,54.8,18.7,60.8,18.7z M60.8,34.9c3.1,0,5.4-2.3,5.4-5.7s-2.3-5.8-5.4-5.8c-3.1,0-5.4,2.4-5.4,5.8
		C55.4,32.5,57.7,34.9,60.8,34.9z"/>
	<path class="st0" d="M75,12.5h5.3v21.7h8.6V39H75V12.5z"/>
	<path class="st0" d="M94.3,11.5c1.7,0,3.1,1.3,3.1,3s-1.3,3-3.1,3c-1.7,0-3-1.3-3-3S92.5,11.5,94.3,11.5z M91.7,19.2h5.2V39h-5.2
		V19.2z"/>
	<path class="st0" d="M104,40.4c0.6,0.3,2.9,1.4,5.6,1.4c2.8,0,5.4-0.9,5.4-3.9V37c-0.4,0.6-2.3,2.5-5.8,2.5
		c-5.7,0-9.5-4.3-9.5-10.4c0-6.1,4-10.4,9.6-10.4c3.3,0,5.3,1.8,5.9,2.6v-2.1h4.9v17.3c0,7.4-4.8,9.8-10.6,9.8
		c-2.7,0-5.5-0.8-7.3-1.8L104,40.4z M110.2,23.3c-3,0-5,2.3-5,5.8c0,3.5,2.1,5.8,5.1,5.8c3,0,5.1-2.3,5.1-5.8
		C115.3,25.7,113.2,23.3,110.2,23.3z"/>
	<path class="st0" d="M141.6,27.6V39h-5.2V27c0-2.2-1.5-3.6-3.3-3.6c-2.2,0-3.6,1.6-3.6,3.7V39h-5.2V11.7h5.2v9.9
		c0.8-1.4,2.6-2.8,5.2-2.8C140.4,18.7,141.6,23.4,141.6,27.6z"/>
	<path class="st0" d="M146,15.1h5.1v4.2h3.7v4.2h-3.7v7.6c0,3,0.9,3.6,2.9,3.6c0.3,0,0.5,0,0.9,0v4.5c0,0-0.8,0.2-2.2,0.2
		c-4.7,0-6.8-2.6-6.8-8v-7.8h-2.1v-4.2h2.1V15.1z"/>
</g>
</svg>
